<?xml version="1.0" encoding="UTF-8"?> <svg xmlns="http://www.w3.org/2000/svg" width="2450" height="950" viewBox="0 0 2450 950" fill="none"> <g clip-path="url(#clip0_403_2267)"> <path d="M-82.6514 111.408C11.2982 93.3522 249.348 62.6594 443.559 111.408C819.82 205.852 1087.92 75.9181 1168.31 54.4632C1550.82 -47.6201 1737.55 48.0285 1886.82 111.408C2176.3 234.324 2599.77 131.547 2614.35 74.6022M-61.1309 745.435C26.3394 832.241 290.694 989.88 648.35 925.991C1095.42 846.13 991.983 819.741 1255.09 810.713C1465.57 803.491 1721.37 858.63 1822.95 887.102C2027.05 934.556 2468.98 1022.94 2603.94 996.824M-82.1253 125.061C11.6662 109.563 250.358 83.4638 448.555 129.465C826.543 219.658 1085.58 92.2493 1170.43 71.0976C1548.74 -28.672 1737.16 65.9885 1885.26 128.516C2172.66 249.592 2596.58 151.477 2614.1 95.2847M-81.6019 138.718C12.0316 125.778 251.365 104.272 453.548 147.526C833.263 233.468 1083.24 108.585 1172.54 87.736C1546.66 -9.71995 1736.76 83.9525 1883.7 145.629C2169.02 264.864 2593.39 171.412 2613.84 115.971M-81.0758 152.38C12.3996 141.997 252.374 125.085 458.544 165.591C839.987 247.281 1080.9 124.924 1174.66 104.378C1544.58 9.23608 1736.37 101.921 1882.15 162.746C2165.38 280.14 2590.2 191.35 2613.59 136.662M-80.5525 166.046C12.7649 158.221 253.381 145.902 463.538 183.661C846.707 261.1 1078.56 141.268 1176.78 121.026C1542.5 28.197 1735.97 119.893 1880.59 179.867C2161.74 295.421 2587.01 211.293 2613.33 157.357M-80.0264 179.717C13.133 174.449 254.391 166.724 468.534 201.736C853.43 274.923 1076.22 157.617 1178.9 137.677C1540.43 47.1626 1735.58 137.871 1879.03 196.993C2158.1 310.707 2583.82 231.241 2613.08 178.057M-79.503 193.393C13.4983 190.683 255.398 187.551 473.527 219.816C860.151 288.752 1073.88 173.971 1181.01 154.334C1538.34 66.1333 1735.18 155.854 1877.47 214.124C2154.46 325.997 2580.63 251.194 2612.82 198.762M-78.9769 207.074C13.8664 206.922 256.407 208.383 478.523 237.901C866.874 302.586 1071.54 190.33 1183.13 170.997C1536.27 85.1092 1734.79 173.842 1875.91 231.261C2150.82 341.293 2577.44 271.153 2612.57 219.472M-78.4536 220.761C14.2317 223.166 257.414 229.221 483.517 255.991C873.594 316.424 1069.2 206.694 1185.24 187.664C1534.19 104.09 1734.39 191.835 1874.35 248.403C2147.18 356.595 2574.25 291.116 2612.32 240.188M-77.9275 234.453C14.5998 239.416 258.424 250.064 488.513 274.087C880.317 330.27 1066.86 223.065 1187.36 204.338C1532.11 123.078 1734 209.834 1872.8 265.551C2143.54 371.902 2571.06 311.086 2612.06 260.91M-77.4014 248.152C14.9678 255.673 259.434 270.914 493.509 292.19C887.04 344.121 1064.52 239.442 1189.48 221.018C1530.03 142.072 1733.6 227.84 1871.24 282.705C2139.9 387.216 2567.87 331.062 2611.81 281.638M-76.878 261.858C15.3332 271.936 260.441 291.771 498.502 310.3C893.761 357.979 1062.18 255.825 1191.59 237.705C1527.95 161.072 1733.21 245.852 1869.68 299.866C2136.26 402.536 2564.68 351.045 2611.55 302.373M-76.352 275.57C15.7012 288.206 261.45 312.635 503.498 328.416C900.484 371.844 1059.84 272.216 1193.71 254.398C1525.87 180.079 1732.81 263.871 1868.13 317.034C2132.62 417.864 2561.49 371.035 2611.3 323.115M-75.8286 289.29C16.0665 304.483 262.457 333.505 508.492 346.54C907.204 385.716 1057.5 288.614 1195.83 271.099C1521.46 199.606 1729.44 280.726 1863.69 333.087L1866.57 334.209C2128.98 433.198 2558.3 391.031 2611.05 343.863M-75.3025 303.018C16.4346 320.769 263.467 354.385 513.488 364.671C913.928 399.597 1055.16 305.02 1197.94 287.808C1521 218.271 1731.09 299.571 1864.13 351.05L1865.01 351.392C2125.34 448.541 2555.11 411.036 2610.79 364.621M-74.7792 316.755C16.7999 337.063 264.474 375.272 518.481 382.812C920.648 413.486 1052.82 321.434 1200.06 304.526C1519.63 237.148 1731.63 317.976 1863.45 368.584C2121.7 463.892 2551.92 431.05 2610.54 385.386M-74.2531 330.5C17.168 353.366 265.483 396.168 523.477 400.961C927.371 427.384 1050.48 337.857 1202.18 321.252C1517.55 256.188 1731.23 336.028 1861.89 385.785C2118.06 479.252 2548.73 451.073 2610.29 406.161M-73.727 344.255C17.536 369.679 266.493 417.075 528.474 419.12C934.094 441.291 1048.14 354.29 1204.29 337.988C1515.48 275.238 1730.84 354.089 1860.34 402.995C2114.42 494.622 2545.54 471.105 2610.03 426.945M-73.2036 358.02C17.9014 386.001 267.5 437.991 533.467 437.288C940.815 455.208 1045.8 370.733 1206.41 354.734C1513.39 294.297 1730.45 372.161 1858.78 420.215C2110.78 510.002 2542.35 491.147 2609.78 447.739M-72.6775 371.796C18.2694 402.335 268.509 458.918 538.463 455.468C947.538 469.137 1043.46 387.187 1208.53 371.491C1511.32 313.368 1730.05 390.244 1857.22 437.447C2107.14 525.393 2539.16 511.2 2609.52 468.544M-72.1542 385.584C18.6347 418.681 269.516 479.857 543.456 473.66C954.259 483.078 1041.12 403.653 1210.64 388.261C1509.24 332.451 1729.66 408.339 1855.66 454.69C2103.5 540.795 2535.97 531.265 2609.27 489.362M-71.6281 399.385C19.0028 435.039 270.526 500.809 548.452 491.865C960.982 497.031 1038.78 420.132 1212.76 405.042C1507.16 351.546 1729.26 426.446 1854.11 471.946C2099.86 556.211 2532.78 551.343 2609.02 510.191M-71.1047 413.199C19.3681 451.411 271.533 521.774 553.446 510.083C967.702 510.997 1036.44 436.624 1214.87 421.837C1505.08 370.655 1728.87 444.567 1852.55 489.216C2096.21 571.64 2529.59 571.434 2608.76 531.035M-70.5786 427.028C19.7362 467.797 272.542 542.754 558.442 528.315C974.425 524.979 1034.1 453.131 1216.99 438.647C1503 389.779 1728.47 462.703 1850.99 506.5C2092.58 587.083 2526.4 591.54 2608.51 551.893M-70.0553 440.872C20.1015 484.199 273.549 563.749 563.435 546.564C981.146 538.975 1031.76 469.653 1219.11 455.473C1500.92 408.918 1728.08 480.853 1849.43 523.799C2088.93 602.542 2523.21 611.662 2608.25 572.766M-69.5292 458.305C20.4696 504.19 274.559 588.333 568.431 568.4C987.869 556.561 1029.42 489.764 1221.22 475.887C1498.84 431.645 1727.68 502.593 1847.87 544.688C2085.29 621.59 2520.02 635.372 2608 597.228M-69.0031 476.251C20.8376 524.693 275.569 613.43 573.428 590.75C994.592 574.659 1027.08 510.388 1223.34 496.813C1496.76 454.886 1727.29 524.845 1846.32 566.089C2081.65 641.15 2516.83 659.595 2607.75 622.203M-68.4798 494.197C21.203 545.196 276.575 638.527 578.421 613.099C1001.31 592.757 1024.74 531.011 1225.46 517.74C1494.68 478.126 1726.89 547.098 1844.76 587.489C2078.01 660.711 2513.64 683.817 2607.49 647.178M-67.9537 512.143C21.571 565.699 277.585 663.623 583.417 635.449C1008.04 610.855 1022.4 551.635 1227.57 538.667C1492.6 501.367 1726.5 569.35 1843.2 608.89C2074.37 680.271 2510.45 708.04 2607.24 672.153M-67.4303 530.088C21.9363 586.202 278.592 688.72 588.41 657.798C1014.76 628.953 1020.06 572.258 1229.69 559.593C1490.52 524.607 1726.1 591.602 1841.64 630.291C2070.73 699.831 2507.26 732.263 2606.98 697.127M-66.9042 548.034C22.3044 606.706 279.602 713.816 593.407 680.147C1021.48 647.051 1017.72 592.882 1231.81 580.52C1488.44 547.847 1725.71 613.855 1840.09 651.692C2067.09 719.392 2504.07 756.485 2606.73 722.102M-66.3809 565.979C22.6697 627.209 280.609 738.913 598.4 702.497C1028.2 665.149 1015.38 613.505 1233.92 601.447C1486.36 571.088 1725.31 636.107 1838.53 673.093C2063.45 738.952 2500.88 780.708 2606.47 747.077M-65.8548 583.925C23.0378 647.712 281.618 764.01 603.396 724.846C1034.92 683.247 1013.04 634.129 1236.04 622.373C1484.29 594.328 1724.92 658.359 1836.97 694.494C2059.81 758.513 2497.69 804.931 2606.22 772.052M-65.3287 601.871C23.4058 668.215 282.628 789.107 608.392 747.196C1041.65 701.346 1010.7 654.753 1238.16 643.3C1482.21 617.568 1724.52 680.612 1835.41 715.895C2056.17 778.073 2494.5 829.154 2605.97 797.026M-64.8053 619.816C23.7712 688.718 283.635 814.203 613.386 769.545C1048.37 719.443 1008.36 675.376 1240.27 664.227C1480.13 640.808 1724.13 702.864 1833.85 737.296C2052.53 797.633 2491.31 853.376 2605.71 822.001M-64.2792 637.762C24.1392 709.222 284.644 839.3 618.382 791.894C1055.09 737.541 1006.02 696 1242.39 685.153C1478.05 664.049 1723.73 725.116 1832.3 758.697C2048.89 817.194 2488.12 877.599 2605.46 846.976M-63.7559 655.707C24.5045 729.725 285.651 864.397 623.375 814.244C1061.81 755.64 1003.68 716.623 1244.51 706.08C1475.97 687.289 1723.34 747.368 1830.74 780.098C2045.25 836.754 2484.93 901.822 2605.21 871.951M-63.2298 673.653C24.8726 750.228 286.661 889.493 628.371 836.593C1068.53 773.738 1001.34 737.247 1246.62 727.007C1473.89 710.53 1722.94 769.621 1829.18 801.499C2041.61 856.314 2481.74 926.045 2604.95 896.925M-62.7064 691.599C25.2379 770.732 287.668 914.59 633.365 858.943C1075.25 791.836 999.002 757.87 1248.74 747.933C1471.81 733.77 1722.55 791.873 1827.62 822.899C2037.97 875.875 2478.55 950.267 2604.7 921.9M-62.1804 709.544C25.606 791.234 288.677 939.687 638.361 881.292C1081.98 809.934 996.664 778.494 1250.86 768.86C1469.73 757.01 1722.15 814.125 1826.07 844.3C2034.33 895.435 2475.36 974.49 2604.44 946.875M-61.657 727.49C25.9713 811.738 289.684 964.783 643.354 903.642C1088.7 828.032 994.322 799.117 1252.97 789.786C1467.65 780.251 1721.76 836.378 1824.51 865.701C2030.69 914.995 2472.17 998.713 2604.19 971.85M63.1311 -44.8423C49.2469 203.074 55.4948 264.185 97.1473 353.769C138.8 443.352 221.413 560.019 142.272 670.435C63.1311 780.852 14.5391 889.88 38.8351 959.324M2422.75 -12.2034C2379.94 47.9818 2304.59 197.519 2345.69 314.185C2397.06 460.019 2440.1 493.352 2392.9 618.352C2345.69 743.352 2247.11 910.019 2320 1030.16M81.6749 -44.5856C67.5632 201.854 73.1692 263.661 114.817 353.457C156.546 443.483 238.848 559.494 159.959 670.026C81.0687 780.557 32.0835 890.038 56.7618 959.881M100.889 -44.3194C86.5417 200.59 91.4827 263.118 133.126 353.135C174.935 443.619 256.914 558.951 178.285 669.601C99.6549 780.252 50.2624 890.203 75.3367 960.459M120.771 -44.0441C106.18 199.282 110.433 262.556 152.072 352.801C193.962 443.76 275.608 558.389 197.247 669.162C118.887 779.935 69.0729 890.372 94.5572 961.056M141.327 -43.7596C126.483 197.93 130.025 261.974 171.659 352.456C213.634 443.905 294.934 557.808 216.853 668.708C138.771 779.608 88.5207 890.548 114.429 961.674M162.553 -43.4659C147.449 196.534 150.256 261.374 191.885 352.099C233.947 444.055 314.892 557.207 237.097 668.239C159.303 779.271 108.603 890.729 134.948 962.311M184.449 -43.1628C169.077 195.093 171.126 260.755 212.75 351.732C254.903 444.21 335.48 556.588 257.982 667.755C180.484 778.922 129.32 890.916 156.117 962.969M207.017 -42.8502C191.367 193.609 192.636 260.117 234.254 351.353C276.5 444.369 356.698 555.95 279.506 667.257C202.314 778.564 150.672 891.109 177.933 963.648M230.255 -42.5287C214.321 192.08 214.785 259.46 256.398 350.963C298.739 444.534 378.548 555.293 301.67 666.743C224.793 778.194 172.658 891.307 200.399 964.345M254.167 -42.1978C237.939 190.508 237.576 258.784 279.183 350.561C321.623 444.702 401.031 554.617 324.477 666.215C247.923 777.813 195.281 891.512 223.515 965.064M278.747 -41.8573C262.218 188.891 261.004 258.089 302.606 350.149C345.147 444.876 424.142 553.922 347.921 665.673C271.7 777.423 218.537 891.722 247.277 965.802M303.998 -41.5081C287.159 187.23 285.071 257.375 326.667 349.725C369.312 445.055 447.883 553.208 372.005 665.115C296.126 777.021 242.427 891.937 271.688 966.56M329.92 -41.149C312.763 185.525 309.778 256.642 351.368 349.29C394.12 445.238 472.256 552.475 396.728 664.542C321.201 776.609 266.953 892.159 296.747 967.339M356.515 -40.7811C339.032 183.776 335.127 255.89 376.711 348.843C419.573 445.426 497.262 551.724 422.095 663.955C346.927 776.186 292.116 892.386 322.458 968.138M383.779 -40.4037C365.961 181.983 361.113 255.12 402.69 348.386C445.665 445.619 522.897 550.953 448.098 663.353C373.3 775.753 317.911 892.619 348.815 968.957M411.714 -40.0171C393.554 180.146 387.739 254.33 429.31 347.917C472.399 445.816 549.162 550.163 474.742 662.736C400.322 775.308 344.341 892.857 375.821 969.796M440.323 -39.6211C421.811 178.265 415.007 253.521 456.571 347.437C499.778 446.018 576.062 549.355 502.029 662.104C427.996 774.854 371.408 893.102 403.478 970.655M469.6 -39.2159C450.729 176.34 442.912 252.694 484.469 346.946C527.797 446.225 603.589 548.527 529.953 661.458C456.317 774.388 399.108 893.352 431.781 971.535M499.551 -38.8015C480.313 174.37 471.46 251.847 513.01 346.443C556.461 446.437 631.751 547.68 558.52 660.796C485.289 773.912 427.446 893.607 460.736 972.434M530.173 -38.378C510.56 172.357 500.647 250.981 542.19 345.929C585.767 446.653 660.543 546.815 587.727 660.12C514.911 773.425 456.419 893.868 490.34 973.353M561.463 -37.945C541.467 170.299 530.472 250.097 572.007 345.404C615.713 446.874 689.964 545.93 617.572 659.429C545.179 772.927 486.024 894.136 520.59 974.293M593.428 -37.5025C573.039 168.198 560.939 249.194 602.466 344.867C646.305 447.1 720.019 545.027 648.06 658.723C576.1 772.419 516.267 894.409 551.491 975.253M626.064 -37.0508C605.275 166.052 592.046 248.271 633.566 344.32C677.538 447.331 750.706 544.105 679.188 658.003C607.67 771.901 547.146 894.687 583.042 976.233M659.371 -36.59C638.174 163.862 623.792 247.33 665.305 343.761C709.414 447.566 782.023 543.163 710.956 657.267C639.889 771.371 578.659 894.972 615.242 977.233M693.347 -36.12C671.733 161.628 656.176 246.37 697.681 343.191C741.93 447.806 813.969 542.203 743.362 656.517C672.755 770.831 610.805 895.262 648.087 978.254M727.997 -35.6406C705.958 159.35 689.203 245.391 730.699 342.609C775.091 448.051 846.549 541.224 776.411 655.752C706.273 770.28 643.589 895.558 681.585 979.294M763.318 -35.1519C740.846 157.028 722.87 244.392 764.357 342.017C808.895 448.3 879.76 540.226 810.1 654.972C740.44 769.719 677.008 895.859 715.732 980.354M799.311 -34.6538C776.398 154.662 757.176 243.375 798.655 341.413C843.342 448.555 913.603 539.209 844.43 654.178C775.257 769.147 711.063 896.166 750.528 981.435M835.975 -34.1469C812.612 152.251 792.123 242.339 833.593 340.797C878.431 448.814 948.077 538.172 879.401 653.368C810.724 768.563 745.752 896.479 785.973 982.536M873.311 -33.6301C849.49 149.797 827.71 241.284 869.171 340.171C914.162 449.078 983.183 537.118 915.011 652.544C846.84 767.97 781.078 896.798 822.067 983.657M911.321 -33.1045C887.034 147.299 863.939 240.21 905.392 339.533C950.539 449.346 1018.92 536.044 951.266 651.705C883.609 767.366 817.041 897.122 858.813 984.798M949.999 -32.5695C925.238 144.756 900.806 239.117 942.249 338.885C987.556 449.619 1055.29 534.951 988.157 650.851C921.024 766.751 853.637 897.453 896.206 985.959M989.349 -32.0249C964.106 142.17 938.313 238.006 979.747 338.225C1025.22 449.897 1092.29 533.839 1025.69 649.983C959.089 766.126 890.868 897.789 934.248 987.141M1029.37 -31.4715C1003.64 139.539 976.46 236.875 1017.88 337.553C1063.52 450.18 1129.92 532.708 1063.86 649.099C997.804 765.49 928.735 898.13 972.939 988.342M1070.07 -30.9086C1043.83 136.864 1015.25 235.725 1056.67 336.87C1102.47 450.467 1168.19 531.558 1102.68 648.201C1037.17 764.843 967.24 898.477 1012.28 989.563M1111.43 -30.3363C1084.69 134.146 1054.68 234.556 1096.08 336.177C1142.05 450.76 1207.08 530.39 1142.13 647.288C1077.18 764.186 1006.38 898.831 1052.27 990.805M1153.47 -29.7551C1126.22 131.382 1094.75 233.369 1136.14 335.471C1182.29 451.056 1246.61 529.202 1182.23 646.36C1117.85 763.518 1046.15 899.189 1092.91 992.067M1196.18 -29.164C1168.4 128.576 1135.45 232.162 1176.84 334.755C1223.16 451.358 1286.77 527.996 1222.97 645.417C1159.16 762.839 1086.56 899.554 1134.2 993.349M1239.56 -28.5642C1211.25 125.724 1176.81 230.937 1218.18 334.027C1264.68 451.664 1327.56 526.77 1264.34 644.46C1201.13 762.15 1127.61 899.924 1176.14 994.651M1283.61 -27.9549C1254.76 122.829 1218.79 229.692 1260.16 333.288C1306.84 451.975 1368.98 525.525 1306.36 643.487L1304.98 646.088C1242.66 763.485 1169.65 901.002 1218.73 995.974M1328.34 -27.3364C1298.94 119.89 1261.42 228.429 1302.78 332.538C1349.64 452.291 1411.03 524.262 1349.02 642.5C1287.01 760.739 1211.61 900.681 1261.97 997.316M1373.73 -26.7084C1343.78 116.907 1304.69 227.146 1346.04 331.777C1393.09 452.612 1453.72 522.98 1392.32 641.499C1330.92 760.018 1254.56 901.069 1305.85 998.679M1419.8 -26.0713C1389.28 113.879 1348.6 225.845 1389.94 331.004C1437.18 452.937 1497.04 521.678 1436.26 640.482C1375.48 759.286 1298.15 901.462 1350.39 1000.06M1466.54 -25.425C1435.45 110.808 1393.16 224.525 1434.48 330.22C1481.91 453.267 1540.99 520.358 1480.84 639.45C1420.7 758.543 1342.37 901.861 1395.58 1001.46M1513.95 -24.7692C1482.28 107.692 1438.35 223.185 1479.66 329.425C1527.29 453.602 1585.57 519.019 1526.06 638.404C1466.56 757.79 1387.23 902.265 1441.41 1002.89M1562.04 -24.1042C1529.77 104.533 1484.18 221.827 1525.48 328.619C1573.31 453.942 1630.78 517.661 1571.93 637.343C1513.08 757.026 1432.73 902.676 1487.9 1004.33M1610.79 -23.4301C1577.93 101.329 1530.65 220.45 1571.94 327.801C1619.97 454.286 1676.62 516.283 1618.43 636.267C1560.24 756.251 1478.86 903.092 1535.03 1005.79M1660.22 -22.7465C1626.75 98.0808 1577.76 219.054 1619.04 326.972C1667.27 454.635 1723.1 514.887 1665.57 635.176C1608.05 755.466 1525.62 903.513 1582.82 1007.28M1710.32 -22.0538C1676.24 94.7889 1625.52 217.639 1666.78 326.132C1715.22 454.989 1770.21 513.472 1713.36 634.071C1656.52 754.67 1573.03 903.941 1631.25 1008.78M1761.09 -21.3519C1726.39 91.4527 1673.91 216.205 1715.17 325.28C1763.81 455.347 1817.95 512.038 1761.79 632.951C1705.63 753.863 1621.06 904.374 1680.34 1010.3M1812.53 -20.6405C1777.2 88.0726 1722.95 214.752 1764.19 324.418C1813.05 455.711 1866.32 510.585 1810.86 631.815C1755.39 753.046 1669.74 904.813 1730.07 1011.85M1864.65 -19.9199C1828.68 84.6483 1772.62 213.28 1813.85 323.544C1862.92 456.078 1915.32 509.113 1860.56 630.665C1805.81 752.218 1719.05 905.257 1780.45 1013.41M1917.43 -19.1899C1880.81 81.1802 1822.94 211.789 1864.15 322.659C1913.44 456.451 1964.96 507.623 1910.91 629.501C1856.87 751.379 1768.99 905.708 1831.48 1015M1970.89 -18.4507C1933.62 77.6679 1873.89 210.279 1915.09 321.762C1964.6 456.829 2015.22 506.113 1961.9 628.321C1908.58 750.53 1819.57 906.164 1883.16 1016.6M2025.02 -17.7023C1987.09 74.1113 1925.49 208.751 1966.68 320.854C2016.41 457.211 2066.12 504.584 2013.54 627.127C1960.95 749.67 1870.79 906.626 1935.5 1018.22M2079.82 -16.9445C2041.22 70.5109 1977.72 207.203 2018.9 319.936C2068.86 457.598 2117.65 503.036 2065.81 625.918C2013.96 748.8 1922.64 907.093 1988.48 1019.87M2135.3 -16.1775C2096.01 66.8663 2030.6 205.636 2071.76 319.005C2121.95 457.99 2169.81 501.47 2118.72 624.694C2067.62 747.918 1975.13 907.567 2042.11 1021.53M2191.44 -15.4013C2151.47 63.1775 2084.12 204.051 2125.27 318.064C2175.69 458.386 2222.61 499.884 2172.27 623.455C2121.94 747.026 2028.26 908.046 2096.39 1023.22M2248.26 -14.6156C2207.59 59.4448 2138.27 202.446 2179.41 317.111C2230.07 458.787 2276.03 498.28 2226.47 622.202C2176.9 746.124 2082.02 908.53 2151.32 1024.92M2305.75 -13.8208C2264.38 55.6679 2193.07 200.823 2234.2 316.147C2285.09 459.193 2330.09 496.656 2281.3 620.933C2232.51 745.211 2136.41 909.021 2206.9 1026.65M2363.91 -13.0169C2321.82 51.8468 2248.51 199.18 2289.62 315.172C2340.75 459.603 2384.78 495.013 2336.78 619.65C2288.77 744.287 2191.44 909.517 2263.12 1028.39" stroke="#37343C"></path> </g> <defs> <clipPath id="clip0_403_2267"> <rect width="2450" height="950" fill="white"></rect> </clipPath> </defs> </svg> 